<svg width="16" height="16" viewBox="0 0 16 16" fill="none" xmlns="http://www.w3.org/2000/svg">
<path d="M6.44729 2.75734C6.48402 2.3709 6.66351 2.01203 6.95069 1.75086C7.23787 1.48968 7.61211 1.34496 8.00029 1.34496C8.38847 1.34496 8.76271 1.48968 9.04989 1.75086C9.33707 2.01203 9.51656 2.3709 9.55329 2.75734C9.57537 3.00697 9.65727 3.24762 9.79205 3.4589C9.92683 3.67018 10.1105 3.84588 10.3276 3.97112C10.5447 4.09637 10.7887 4.16747 11.0391 4.17842C11.2895 4.18936 11.5388 4.13983 11.766 4.034C12.1187 3.87386 12.5184 3.85068 12.8873 3.96899C13.2562 4.08731 13.5678 4.33864 13.7616 4.67407C13.9554 5.00951 14.0175 5.40505 13.9357 5.78372C13.854 6.16238 13.6342 6.49708 13.3193 6.72267C13.1142 6.86657 12.9468 7.05774 12.8312 7.28002C12.7157 7.5023 12.6553 7.74914 12.6553 7.99967C12.6553 8.2502 12.7157 8.49704 12.8312 8.71932C12.9468 8.9416 13.1142 9.13277 13.3193 9.27667C13.6342 9.50226 13.854 9.83696 13.9357 10.2156C14.0175 10.5943 13.9554 10.9898 13.7616 11.3253C13.5678 11.6607 13.2562 11.912 12.8873 12.0303C12.5184 12.1487 12.1187 12.1255 11.766 11.9653C11.5388 11.8595 11.2895 11.81 11.0391 11.8209C10.7887 11.8319 10.5447 11.903 10.3276 12.0282C10.1105 12.1535 9.92683 12.3292 9.79205 12.5404C9.65727 12.7517 9.57537 12.9924 9.55329 13.242C9.51656 13.6284 9.33707 13.9873 9.04989 14.2485C8.76271 14.5097 8.38847 14.6544 8.00029 14.6544C7.61211 14.6544 7.23787 14.5097 6.95069 14.2485C6.66351 13.9873 6.48402 13.6284 6.44729 13.242C6.42525 12.9923 6.34336 12.7515 6.20854 12.5402C6.07371 12.3288 5.88994 12.1531 5.67278 12.0278C5.45562 11.9026 5.21147 11.8315 4.96101 11.8206C4.71055 11.8097 4.46116 11.8594 4.23396 11.9653C3.88122 12.1255 3.48151 12.1487 3.11263 12.0303C2.74374 11.912 2.43207 11.6607 2.23828 11.3253C2.04449 10.9898 1.98244 10.5943 2.0642 10.2156C2.14596 9.83696 2.36569 9.50226 2.68063 9.27667C2.88571 9.13277 3.05311 8.9416 3.16868 8.71932C3.28426 8.49704 3.34459 8.2502 3.34459 7.99967C3.34459 7.74914 3.28426 7.5023 3.16868 7.28002C3.05311 7.05774 2.88571 6.86657 2.68063 6.72267C2.36614 6.49697 2.14679 6.1624 2.06523 5.78399C1.98366 5.40558 2.0457 5.01036 2.23928 4.67515C2.43287 4.33993 2.74417 4.08866 3.11269 3.97016C3.4812 3.85167 3.88061 3.87443 4.23329 4.034C4.46046 4.13983 4.70979 4.18936 4.96016 4.17842C5.21053 4.16747 5.45458 4.09637 5.67165 3.97112C5.88872 3.84588 6.07242 3.67018 6.2072 3.4589C6.34198 3.24762 6.42388 3.00697 6.44596 2.75734" stroke="#5F5F5F" stroke-linecap="round" stroke-linejoin="round"/>
<path d="M8 10C9.10457 10 10 9.10457 10 8C10 6.89543 9.10457 6 8 6C6.89543 6 6 6.89543 6 8C6 9.10457 6.89543 10 8 10Z" stroke="#5F5F5F" stroke-linecap="round" stroke-linejoin="round"/>
</svg>
